<svg xmlns="http://www.w3.org/2000/svg" width="1600" height="900" viewBox="0 0 1600 900">
  <defs>
    <marker id="arrow" viewBox="0 0 10 10" refX="9" refY="5" markerWidth="9" markerHeight="9" orient="auto-start-reverse"><path d="M 0 0 L 10 5 L 0 10 z" fill="#111827"/></marker>
    <marker id="arrow-gray" viewBox="0 0 10 10" refX="9" refY="5" markerWidth="8" markerHeight="8" orient="auto-start-reverse"><path d="M 0 0 L 10 5 L 0 10 z" fill="#6b7280"/></marker>
    <filter id="shadow" x="-10%" y="-10%" width="120%" height="130%"><feDropShadow dx="0" dy="3" stdDeviation="3" flood-color="#000000" flood-opacity="0.12"/></filter>
    <style>
      .title { font: 800 32px -apple-system, BlinkMacSystemFont, 'Segoe UI', 'Noto Sans KR', Arial, sans-serif; fill: #111827; }
      .h { font: 800 23px -apple-system, BlinkMacSystemFont, 'Segoe UI', 'Noto Sans KR', Arial, sans-serif; fill: #111827; }
      .h2 { font: 800 19px -apple-system, BlinkMacSystemFont, 'Segoe UI', 'Noto Sans KR', Arial, sans-serif; fill: #111827; }
      .b { font: 600 17px -apple-system, BlinkMacSystemFont, 'Segoe UI', 'Noto Sans KR', Arial, sans-serif; fill: #111827; }
      .s { font: 500 15px -apple-system, BlinkMacSystemFont, 'Segoe UI', 'Noto Sans KR', Arial, sans-serif; fill: #4b5563; }
      .tiny { font: 600 13px -apple-system, BlinkMacSystemFont, 'Segoe UI', 'Noto Sans KR', Arial, sans-serif; fill: #4b5563; }
      .mono { font: 700 15px ui-monospace, SFMono-Regular, Menlo, Consolas, monospace; fill: #111827; }
      .chip { font: 700 13px -apple-system, BlinkMacSystemFont, 'Segoe UI', 'Noto Sans KR', Arial, sans-serif; fill: #111827; }
    </style>
  </defs>
  <rect width="1600" height="900" fill="#f7f1e8"/>
  <text x="60" y="58" class="title">Jiphyeonjeon Agent: boundaries, tools, and current scope</text>
<rect x="70" y="120" width="285" height="145" rx="22" fill="#f3f4f6" stroke="#6b7280" stroke-width="2" filter="url(#shadow)"/>
<text x="92" y="158" class="h">Researcher / 연구자</text>
<text x="92" y="186" class="s">reads, saves, asks</text>
<rect x="95" y="218" width="72" height="28" rx="14" fill="#ffffff" stroke="#d1d5db" stroke-width="2"/>
<text x="131.0" y="237" class="chip" text-anchor="middle">Search</text>
<rect x="168" y="218" width="58" height="28" rx="14" fill="#ffffff" stroke="#d1d5db" stroke-width="2"/>
<text x="197.0" y="237" class="chip" text-anchor="middle">PDF</text>
<rect x="232" y="218" width="72" height="28" rx="14" fill="#ffffff" stroke="#d1d5db" stroke-width="2"/>
<text x="268.0" y="237" class="chip" text-anchor="middle">Review</text>
<rect x="455" y="105" width="385" height="170" rx="22" fill="#dbeafe" stroke="#6b7280" stroke-width="2" filter="url(#shadow)"/>
<text x="477" y="143" class="h">Web UI / 웹 연구 화면</text>
<text x="477" y="171" class="s">human-facing app experience</text>
<rect x="480" y="203" width="72" height="28" rx="14" fill="#ffffff" stroke="#d1d5db" stroke-width="2"/>
<text x="516.0" y="222" class="chip" text-anchor="middle">Search</text>
<rect x="562" y="203" width="90" height="28" rx="14" fill="#ffffff" stroke="#d1d5db" stroke-width="2"/>
<text x="607.0" y="222" class="chip" text-anchor="middle">PDF View</text>
<rect x="662" y="203" width="104" height="28" rx="14" fill="#ffffff" stroke="#d1d5db" stroke-width="2"/>
<text x="714.0" y="222" class="chip" text-anchor="middle">Bookmarks</text>
<rect x="776" y="203" width="82" height="28" rx="14" fill="#ffffff" stroke="#d1d5db" stroke-width="2"/>
<text x="817.0" y="222" class="chip" text-anchor="middle">My Page</text>
<rect x="970" y="105" width="320" height="170" rx="22" fill="#fef3c7" stroke="#6b7280" stroke-width="2" filter="url(#shadow)"/>
<text x="992" y="143" class="h">Agent Key / 인증 경계</text>
<text x="992" y="171" class="s">explicit login-token handoff</text>
<text x="992" y="205" class="mono">current access_token → clipboard</text>
<rect x="992" y="226" width="154" height="28" rx="14" fill="#ffffff" stroke="#d1d5db" stroke-width="2"/>
<text x="1069.0" y="245" class="chip" text-anchor="middle">not scoped API key</text>
<rect x="70" y="465" width="315" height="160" rx="22" fill="#ede9fe" stroke="#6b7280" stroke-width="2" filter="url(#shadow)"/>
<text x="92" y="503" class="h">MCP Host / 외부 실행환경</text>
<text x="92" y="531" class="s">Claude Desktop · Claude Code</text>
<rect x="95" y="563" width="118" height="28" rx="14" fill="#ffffff" stroke="#d1d5db" stroke-width="2"/>
<text x="154.0" y="582" class="chip" text-anchor="middle">starts agent</text>
<rect x="224" y="563" width="98" height="28" rx="14" fill="#ffffff" stroke="#d1d5db" stroke-width="2"/>
<text x="273.0" y="582" class="chip" text-anchor="middle">tool calls</text>
<rect x="505" y="430" width="390" height="210" rx="22" fill="#fed7aa" stroke="#6b7280" stroke-width="2" filter="url(#shadow)"/>
<text x="527" y="468" class="h">Jiphyeonjeon MCP Agent</text>
<text x="527" y="496" class="s">adapter / future component</text>
<rect x="530" y="531" width="112" height="28" rx="14" fill="#ffffff" stroke="#d1d5db" stroke-width="2"/>
<text x="586.0" y="550" class="chip" text-anchor="middle">reads token</text>
<rect x="654" y="531" width="174" height="28" rx="14" fill="#ffffff" stroke="#d1d5db" stroke-width="2"/>
<text x="741.0" y="550" class="chip" text-anchor="middle">checks /api/version</text>
<rect x="530" y="570" width="105" height="28" rx="14" fill="#ffffff" stroke="#d1d5db" stroke-width="2"/>
<text x="582.5" y="589" class="chip" text-anchor="middle">maps tools</text>
<rect x="1040" y="395" width="450" height="270" rx="22" fill="#dcfce7" stroke="#6b7280" stroke-width="2" filter="url(#shadow)"/>
<text x="1062" y="433" class="h">Jiphyeonjeon API Server</text>
<text x="1062" y="461" class="s">implemented vs tool-surface scope</text>
<text x="1065" y="472" class="h2">Implemented in this step</text>
<rect x="1065" y="492" width="148" height="28" rx="14" fill="#ffffff" stroke="#d1d5db" stroke-width="2"/>
<text x="1139.0" y="511" class="chip" text-anchor="middle">GET /api/version</text>
<rect x="1225" y="492" width="222" height="28" rx="14" fill="#ffffff" stroke="#d1d5db" stroke-width="2"/>
<text x="1336.0" y="511" class="chip" text-anchor="middle">GET /api/papers/{paper_id}</text>
<text x="1065" y="560" class="h2">Existing / future MCP tool surfaces</text>
<rect x="1065" y="580" width="100" height="28" rx="14" fill="#ffffff" stroke="#d1d5db" stroke-width="2"/>
<text x="1115.0" y="599" class="chip" text-anchor="middle">bookmarks</text>
<rect x="1177" y="580" width="146" height="28" rx="14" fill="#ffffff" stroke="#d1d5db" stroke-width="2"/>
<text x="1250.0" y="599" class="chip" text-anchor="middle">recommendations</text>
<rect x="1335" y="580" width="112" height="28" rx="14" fill="#ffffff" stroke="#d1d5db" stroke-width="2"/>
<text x="1391.0" y="599" class="chip" text-anchor="middle">deep_review</text>
<rect x="1065" y="620" width="106" height="28" rx="14" fill="#ffffff" stroke="#d1d5db" stroke-width="2"/>
<text x="1118.0" y="639" class="chip" text-anchor="middle">curriculum</text>
<rect x="1183" y="620" width="60" height="28" rx="14" fill="#ffffff" stroke="#d1d5db" stroke-width="2"/>
<text x="1213.0" y="639" class="chip" text-anchor="middle">blog</text>
<rect x="1255" y="620" width="102" height="28" rx="14" fill="#ffffff" stroke="#d1d5db" stroke-width="2"/>
<text x="1306.0" y="639" class="chip" text-anchor="middle">autofigure</text>
<path d="M 355 190 L 455 190" fill="none" stroke="#111827" stroke-width="4" stroke-linecap="round" marker-end="url(#arrow)"/>
<rect x="343.0" y="168.0" width="124" height="30" rx="15" fill="#fff7ed" stroke="#fdba74" stroke-width="2"/>
<text x="405.0" y="188.0" class="tiny" text-anchor="middle">daily workflow</text>
<path d="M 212 265 L 212 465" fill="none" stroke="#111827" stroke-width="4" stroke-linecap="round" stroke-linejoin="round" marker-end="url(#arrow)"/>
<rect x="164.0" y="443" width="96" height="30" rx="15" fill="#fff7ed" stroke="#fdba74" stroke-width="2"/>
<text x="212" y="463" class="tiny" text-anchor="middle">asks agent</text>
<path d="M 1130 275 L 1130 325 L 220 325 L 220 465" fill="none" stroke="#111827" stroke-width="4" stroke-linecap="round" stroke-linejoin="round" stroke-dasharray="9 8" marker-end="url(#arrow)"/>
<rect x="147.5" y="303" width="145" height="30" rx="15" fill="#fff7ed" stroke="#fdba74" stroke-width="2"/>
<text x="220" y="323" class="tiny" text-anchor="middle">manual copy/paste</text>
<path d="M 385 545 L 505 545" fill="none" stroke="#111827" stroke-width="4" stroke-linecap="round" marker-end="url(#arrow)"/>
<rect x="397.0" y="523.0" width="96" height="30" rx="15" fill="#fff7ed" stroke="#fdba74" stroke-width="2"/>
<text x="445.0" y="543.0" class="tiny" text-anchor="middle">tool calls</text>
<path d="M 895 535 L 1040 535" fill="none" stroke="#111827" stroke-width="4" stroke-linecap="round" marker-end="url(#arrow)"/>
<rect x="922.5" y="513.0" width="90" height="30" rx="15" fill="#fff7ed" stroke="#fdba74" stroke-width="2"/>
<text x="967.5" y="533.0" class="tiny" text-anchor="middle">API calls</text>
<path d="M 1040 575 L 895 575" fill="none" stroke="#6b7280" stroke-width="4" stroke-linecap="round" marker-end="url(#arrow-gray)"/>
<rect x="912.5" y="553.0" width="110" height="30" rx="15" fill="#fff7ed" stroke="#fdba74" stroke-width="2"/>
<text x="967.5" y="573.0" class="tiny" text-anchor="middle">JSON results</text>
<path d="M 647 275 L 647 340 L 1195 340 L 1195 395" fill="none" stroke="#6b7280" stroke-width="4" stroke-linecap="round" stroke-linejoin="round" marker-end="url(#arrow-gray)"/>
<rect x="1112.0" y="318" width="166" height="30" rx="15" fill="#fff7ed" stroke="#fdba74" stroke-width="2"/>
<text x="1195" y="338" class="tiny" text-anchor="middle">normal app API calls</text>
<rect x="110" y="705" width="1380" height="125" rx="22" fill="#fff7ed" stroke="#fdba74" stroke-width="2"/>
<text x="140" y="740" class="h2">Small-tool design / 단일 논문 조회 경계</text>
<rect x="140" y="765" width="300" height="48" rx="18" fill="#ffffff" stroke="#6b7280" stroke-width="2" filter="url(#shadow)"/>
<text x="158" y="798" class="b">IDs from tools</text>
<text x="158" y="799" class="tiny">paper_id · arXiv · DOI · doc_id · title/year</text>
<path d="M 440 790 L 545 790" fill="none" stroke="#111827" stroke-width="4" stroke-linecap="round" marker-end="url(#arrow)"/>
<rect x="545" y="765" width="250" height="48" rx="18" fill="#fef3c7" stroke="#6b7280" stroke-width="2" filter="url(#shadow)"/>
<text x="563" y="798" class="b">agent-side resolver</text>
<text x="568" y="799" class="tiny">normalize before lookup</text>
<path d="M 795 790 L 900 790" fill="none" stroke="#111827" stroke-width="4" stroke-linecap="round" marker-end="url(#arrow)"/>
<rect x="900" y="765" width="340" height="48" rx="18" fill="#dcfce7" stroke="#6b7280" stroke-width="2" filter="url(#shadow)"/>
<text x="918" y="798" class="b">GET /api/papers/{paper_id}</text>
<text x="920" y="799" class="tiny">current: doc_id exact lookup · 404/500 separated</text>
<text x="1260" y="799" class="tiny">Prevents “one giant automation”; tools stay small and verifiable.</text>
</svg>
