<svg xmlns="http://www.w3.org/2000/svg" viewBox="0 0 600 520" style="width:100%;max-width:600px;height:auto" font-family="-apple-system, BlinkMacSystemFont, 'Segoe UI', Roboto, sans-serif">
  <defs>
    <marker id="react_arrow" markerWidth="8" markerHeight="6" refX="7" refY="3" orient="auto">
      <polygon points="0 0, 8 3, 0 6" fill="#6b7280"/>
    </marker>
  </defs>

  <!-- Background -->
  <rect width="600" height="520" fill="#0f0f0f" rx="12"/>

  <!-- Title -->
  <text x="300" y="30" text-anchor="middle" fill="#f3f4f6" font-size="14" font-weight="700">멀티턴 ReAct 검색 루프</text>
  <text x="300" y="50" text-anchor="middle" fill="#9ca3af" font-size="11">예산 기반 반복 검색 · LLM Gap 분석 · 누적 결과 관리</text>

  <!-- ===== CARD 1: Turn 1 ===== -->
  <rect x="24" y="64" width="552" height="118" rx="10" fill="#181818" stroke="rgba(255,255,255,0.08)" stroke-width="1.5"/>

  <!-- Turn label + time badge -->
  <text x="44" y="90" fill="#a5b4fc" font-size="13" font-weight="700">Turn 1</text>
  <rect x="108" y="76" width="58" height="22" rx="6" fill="#181818" stroke="#6b7280" stroke-width="1"/>
  <text x="137" y="91" text-anchor="middle" fill="#6b7280" font-size="11">40s</text>
  <!-- time badge right side -->
  <rect x="490" y="76" width="66" height="22" rx="6" fill="#181818" stroke="rgba(255,255,255,0.08)" stroke-width="1"/>
  <text x="523" y="91" text-anchor="middle" fill="#6b7280" font-size="10">예산 40s</text>

  <!-- Search results -->
  <text x="44" y="116" fill="#9ca3af" font-size="11">arXiv:</text>
  <text x="90" y="116" fill="#f3f4f6" font-size="11" font-weight="600">8편</text>
  <text x="130" y="116" fill="#6b7280" font-size="11">+</text>
  <text x="146" y="116" fill="#9ca3af" font-size="11">OpenAlex:</text>
  <text x="216" y="116" fill="#f3f4f6" font-size="11" font-weight="600">7편</text>
  <text x="254" y="116" fill="#6b7280" font-size="11">=</text>

  <!-- Result badge -->
  <rect x="270" y="104" width="68" height="22" rx="6" fill="#181818" stroke="#a5b4fc" stroke-width="1.5"/>
  <text x="304" y="119" text-anchor="middle" fill="#a5b4fc" font-size="11" font-weight="700">15편 수집</text>

  <!-- Sub-description -->
  <text x="44" y="154" fill="#6b7280" font-size="10.5">keyword_search (arXiv) · semantic_search (OpenAlex) 병렬 실행</text>

  <!-- ===== Arrow 1 ===== -->
  <line x1="300" y1="182" x2="300" y2="208" stroke="#6b7280" stroke-width="1.5" marker-end="url(#react_arrow)"/>

  <!-- ===== CARD 2: Gap Analysis ===== -->
  <rect x="24" y="212" width="552" height="100" rx="10" fill="#181818" stroke="rgba(255,255,255,0.08)" stroke-width="1.5"/>

  <!-- Gap label + time badge -->
  <text x="44" y="238" fill="#f3f4f6" font-size="13" font-weight="700">Gap Analysis</text>
  <rect x="158" y="224" width="58" height="22" rx="6" fill="#181818" stroke="#6b7280" stroke-width="1"/>
  <text x="187" y="239" text-anchor="middle" fill="#6b7280" font-size="11">20s</text>
  <!-- LLM tag -->
  <rect x="490" y="224" width="42" height="22" rx="6" fill="#181818" stroke="rgba(255,255,255,0.08)" stroke-width="1"/>
  <text x="511" y="239" text-anchor="middle" fill="#9ca3af" font-size="10">LLM</text>

  <!-- Gap content -->
  <text x="44" y="264" fill="#9ca3af" font-size="11">발견:</text>
  <text x="82" y="264" fill="#f3f4f6" font-size="11">"linear attention 관련 방법론이 부족합니다"</text>

  <!-- next_query -->
  <text x="44" y="286" fill="#9ca3af" font-size="11">next_query:</text>
  <rect x="120" y="274" width="300" height="22" rx="5" fill="#181818" stroke="#a5b4fc" stroke-width="1"/>
  <text x="130" y="289" fill="#a5b4fc" font-size="11">"linear attention FlashAttn efficient"</text>

  <!-- ===== Arrow 2 ===== -->
  <line x1="300" y1="312" x2="300" y2="338" stroke="#6b7280" stroke-width="1.5" marker-end="url(#react_arrow)"/>

  <!-- ===== CARD 3: Turn 2 ===== -->
  <rect x="24" y="342" width="552" height="128" rx="10" fill="#181818" stroke="rgba(255,255,255,0.08)" stroke-width="1.5"/>

  <!-- Turn label + time badge -->
  <text x="44" y="368" fill="#a5b4fc" font-size="13" font-weight="700">Turn 2</text>
  <rect x="108" y="354" width="58" height="22" rx="6" fill="#181818" stroke="#6b7280" stroke-width="1"/>
  <text x="137" y="369" text-anchor="middle" fill="#6b7280" font-size="11">30s</text>
  <!-- time badge right side -->
  <rect x="490" y="354" width="66" height="22" rx="6" fill="#181818" stroke="rgba(255,255,255,0.08)" stroke-width="1"/>
  <text x="523" y="369" text-anchor="middle" fill="#6b7280" font-size="10">예산 30s</text>

  <!-- Search results -->
  <text x="44" y="394" fill="#9ca3af" font-size="11">OpenAlex:</text>
  <text x="114" y="394" fill="#f3f4f6" font-size="11" font-weight="600">6편</text>
  <text x="148" y="394" fill="#6b7280" font-size="11">+</text>
  <text x="164" y="394" fill="#9ca3af" font-size="11">DBLP:</text>
  <text x="204" y="394" fill="#f3f4f6" font-size="11" font-weight="600">4편</text>

  <!-- Dedup arrow -->
  <text x="244" y="394" fill="#6b7280" font-size="11">→ 중복 제거 →</text>

  <!-- Result badge -->
  <rect x="344" y="382" width="68" height="22" rx="6" fill="#181818" stroke="#a5b4fc" stroke-width="1.5"/>
  <text x="378" y="397" text-anchor="middle" fill="#a5b4fc" font-size="11" font-weight="700">18편 확정</text>

  <!-- Accumulation line -->
  <line x1="44" y1="410" x2="556" y2="410" stroke="#1f2937" stroke-width="1"/>

  <!-- Final result row -->
  <text x="44" y="432" fill="#9ca3af" font-size="11">누적 총계:</text>
  <text x="114" y="432" fill="#f3f4f6" font-size="11" font-weight="700">18편</text>
  <text x="156" y="432" fill="#6b7280" font-size="11">(Turn 1: 15편 → 중복 포함 25편 → Jaccard + 임베딩 제거)</text>

  <!-- Time badges row -->
  <rect x="44" y="444" width="80" height="20" rx="5" fill="#181818" stroke="#1f2937" stroke-width="1"/>
  <text x="84" y="458" text-anchor="middle" fill="#9ca3af" font-size="10">총 71초</text>
  <rect x="134" y="444" width="80" height="20" rx="5" fill="#181818" stroke="#1f2937" stroke-width="1"/>
  <text x="174" y="458" text-anchor="middle" fill="#9ca3af" font-size="10">2턴 완료</text>
  <!-- Pass badge -->
  <rect x="460" y="444" width="96" height="20" rx="5" fill="#181818" stroke="#22c55e" stroke-width="1"/>
  <text x="508" y="458" text-anchor="middle" fill="#22c55e" font-size="10" font-weight="700">PASS (0.78 &gt;= 0.70)</text>

  <!-- Footer note -->
  <text x="300" y="508" text-anchor="middle" fill="#6b7280" font-size="9.5">* coverage_score &lt; 0.70 이면 Turn 3 (20s) 추가 실행</text>
</svg>
