<svg xmlns="http://www.w3.org/2000/svg" viewBox="0 0 600 260" style="width:100%;max-width:600px;height:auto" font-family="-apple-system, BlinkMacSystemFont, 'Segoe UI', Roboto, sans-serif">

  <!-- Background -->
  <rect width="600" height="260" fill="#0f0f0f" rx="12"/>

  <!-- Title -->
  <text x="300" y="28" text-anchor="middle" fill="#f3f4f6" font-size="14" font-weight="700">RaR Rubric 평가 — 4차원 품질 검증</text>
  <text x="300" y="46" text-anchor="middle" fill="#9ca3af" font-size="11">Reflection-after-Retrieval · 검색 결과 자가 평가</text>

  <!-- ===== Bar chart area ===== -->
  <!-- Labels: x=24~174, bars: x=178, bar max-width=330, score: x after bar, total row: y step 38 -->

  <!-- Row 1: Diversity 3/5 = 60% = 198px -->
  <text x="170" y="78" text-anchor="end" fill="#f3f4f6" font-size="12.5" font-weight="600">Diversity</text>
  <text x="170" y="93" text-anchor="end" fill="#9ca3af" font-size="10">다양성</text>
  <!-- bar track -->
  <rect x="178" y="66" width="330" height="26" rx="5" fill="#1f2937"/>
  <!-- bar fill: 3/5 = 60% = 198px -->
  <rect x="178" y="66" width="198" height="26" rx="5" fill="#a5b4fc"/>
  <!-- score label -->
  <text x="384" y="84" fill="#f3f4f6" font-size="12" font-weight="700">3 / 5</text>

  <!-- Row 2: Thoroughness 4/5 = 80% = 264px -->
  <text x="170" y="120" text-anchor="end" fill="#f3f4f6" font-size="12.5" font-weight="600">Thoroughness</text>
  <text x="170" y="135" text-anchor="end" fill="#9ca3af" font-size="10">철저함</text>
  <rect x="178" y="108" width="330" height="26" rx="5" fill="#1f2937"/>
  <rect x="178" y="108" width="264" height="26" rx="5" fill="#a5b4fc"/>
  <text x="450" y="126" fill="#f3f4f6" font-size="12" font-weight="700">4 / 5</text>

  <!-- Row 3: Thoughtfulness 4/5 = 80% = 264px -->
  <text x="170" y="162" text-anchor="end" fill="#f3f4f6" font-size="12.5" font-weight="600">Thoughtfulness</text>
  <text x="170" y="177" text-anchor="end" fill="#9ca3af" font-size="10">사려깊음</text>
  <rect x="178" y="150" width="330" height="26" rx="5" fill="#1f2937"/>
  <rect x="178" y="150" width="264" height="26" rx="5" fill="#a5b4fc"/>
  <text x="450" y="168" fill="#f3f4f6" font-size="12" font-weight="700">4 / 5</text>

  <!-- Row 4: Relevance 5/5 = 100% = 330px -->
  <text x="170" y="204" text-anchor="end" fill="#f3f4f6" font-size="12.5" font-weight="600">Relevance</text>
  <text x="170" y="219" text-anchor="end" fill="#9ca3af" font-size="10">관련성</text>
  <rect x="178" y="192" width="330" height="26" rx="5" fill="#1f2937"/>
  <rect x="178" y="192" width="330" height="26" rx="5" fill="#a5b4fc"/>
  <text x="516" y="210" fill="#f3f4f6" font-size="12" font-weight="700">5 / 5</text>

  <!-- ===== Overall score section ===== -->
  <rect x="24" y="230" width="552" height="20" rx="5" fill="#181818" stroke="rgba(255,255,255,0.08)" stroke-width="1"/>

  <!-- Overall score track -->
  <rect x="178" y="234" width="330" height="12" rx="4" fill="#1f2937"/>
  <!-- 72.8% of 330 = 240px -->
  <rect x="178" y="234" width="240" height="12" rx="4" fill="#6366f1"/>
  <!-- Threshold marker: 60% of 330 = 198px, x = 178+198 = 376 -->
  <line x1="376" y1="230" x2="376" y2="250" stroke="#9ca3af" stroke-width="1.5"/>
  <text x="376" y="228" text-anchor="middle" fill="#9ca3af" font-size="8">0.60</text>

  <!-- Score label -->
  <text x="44" y="244" fill="#9ca3af" font-size="11">Overall:</text>
  <text x="94" y="244" fill="#a5b4fc" font-size="13" font-weight="700">0.728</text>

  <!-- Pass badge -->
  <rect x="516" y="232" width="48" height="16" rx="4" fill="#181818" stroke="#22c55e" stroke-width="1.5"/>
  <text x="540" y="244" text-anchor="middle" fill="#22c55e" font-size="10" font-weight="700">PASS</text>
</svg>
