<svg xmlns="http://www.w3.org/2000/svg" viewBox="0 0 960 300" style="width:100%;max-width:960px;height:auto" role="img" aria-label="좌표 정규화 Before/After">
  <defs>
    <marker id="arrnorm" markerWidth="8" markerHeight="8" refX="6" refY="3" orient="auto">
      <path d="M0,0 L0,6 L8,3 z" fill="#a5b4fc"/>
    </marker>
  </defs>

  <!-- Background -->
  <rect width="960" height="300" fill="#0f0f0f"/>

  <!-- Title -->
  <text x="480" y="28" text-anchor="middle" font-family="-apple-system, BlinkMacSystemFont, 'Segoe UI', Roboto, sans-serif" font-size="14" font-weight="600" fill="#f3f4f6">좌표 정규화 Before / After</text>

  <!-- ══════════════ BEFORE panel ══════════════ -->
  <!-- Panel background -->
  <rect x="30" y="42" width="390" height="220" rx="8" fill="#181818" stroke="#1f2937" stroke-width="1.5"/>

  <!-- Label -->
  <text x="225" y="65" text-anchor="middle" font-family="-apple-system, BlinkMacSystemFont, 'Segoe UI', Roboto, sans-serif" font-size="13" font-weight="700" fill="#f3f4f6">Before</text>
  <text x="225" y="82" text-anchor="middle" font-family="-apple-system, BlinkMacSystemFont, 'Segoe UI', Roboto, sans-serif" font-size="10" fill="#6b7280">centroid 보정만</text>

  <!-- Viewport frame (clipping region) -->
  <rect x="55" y="92" width="340" height="155" rx="4" fill="none" stroke="#1f2937" stroke-width="1.5" stroke-dasharray="4 3"/>

  <!-- Normal nodes inside viewport -->
  <circle cx="110" cy="118" r="5" fill="#a5b4fc"/>
  <circle cx="145" cy="112" r="5" fill="#a5b4fc"/>
  <circle cx="175" cy="130" r="6" fill="#a5b4fc"/>
  <circle cx="210" cy="125" r="4" fill="#a5b4fc"/>
  <circle cx="155" cy="155" r="5" fill="#a5b4fc"/>
  <circle cx="200" cy="165" r="6" fill="#a5b4fc"/>
  <circle cx="130" cy="175" r="4" fill="#a5b4fc"/>
  <circle cx="245" cy="145" r="5" fill="#a5b4fc"/>
  <circle cx="280" cy="138" r="4" fill="#a5b4fc"/>
  <circle cx="230" cy="195" r="5" fill="#a5b4fc"/>
  <circle cx="170" cy="200" r="4" fill="#a5b4fc"/>
  <circle cx="305" cy="160" r="5" fill="#a5b4fc"/>

  <!-- Problem node — outside viewport (bottom-right overflow) -->
  <circle cx="368" cy="232" r="6" fill="#ef4444"/>
  <!-- dashed leader to show it is outside -->
  <line x1="355" y1="224" x2="340" y2="210" stroke="#ef4444" stroke-width="1" stroke-dasharray="3 2"/>
  <!-- Label -->
  <text x="375" y="248" font-family="-apple-system, BlinkMacSystemFont, 'Segoe UI', Roboto, sans-serif" font-size="10" fill="#ef4444">뷰포트 밖</text>

  <!-- Second problem node — top-left overflow -->
  <circle cx="44" cy="104" r="5" fill="#ef4444"/>
  <line x1="53" y1="107" x2="64" y2="110" stroke="#ef4444" stroke-width="1" stroke-dasharray="3 2"/>

  <!-- Warning label -->
  <text x="225" y="260" text-anchor="middle" font-family="-apple-system, BlinkMacSystemFont, 'Segoe UI', Roboto, sans-serif" font-size="10" fill="#ef4444">고립 노드가 뷰포트 밖으로 벗어남</text>

  <!-- ══════════════ Center arrow ══════════════ -->
  <line x1="438" y1="152" x2="518" y2="152" stroke="#a5b4fc" stroke-width="2" marker-end="url(#arrnorm)"/>
  <text x="478" y="143" text-anchor="middle" font-family="-apple-system, BlinkMacSystemFont, 'Segoe UI', Roboto, sans-serif" font-size="11" font-weight="600" fill="#a5b4fc">정규화</text>
  <text x="478" y="170" text-anchor="middle" font-family="-apple-system, BlinkMacSystemFont, 'Segoe UI', Roboto, sans-serif" font-size="9" fill="#6b7280">max-abs</text>
  <text x="478" y="182" text-anchor="middle" font-family="-apple-system, BlinkMacSystemFont, 'Segoe UI', Roboto, sans-serif" font-size="9" fill="#6b7280">[-1, 1]</text>

  <!-- ══════════════ AFTER panel ══════════════ -->
  <!-- Panel background -->
  <rect x="540" y="42" width="390" height="220" rx="8" fill="#181818" stroke="#1f2937" stroke-width="1.5"/>

  <!-- Label -->
  <text x="735" y="65" text-anchor="middle" font-family="-apple-system, BlinkMacSystemFont, 'Segoe UI', Roboto, sans-serif" font-size="13" font-weight="700" fill="#f3f4f6">After</text>
  <text x="735" y="82" text-anchor="middle" font-family="-apple-system, BlinkMacSystemFont, 'Segoe UI', Roboto, sans-serif" font-size="10" fill="#6b7280">+ max-abs 정규화</text>

  <!-- Viewport frame -->
  <rect x="565" y="92" width="340" height="155" rx="4" fill="none" stroke="#22c55e" stroke-width="1.5"/>

  <!-- All nodes comfortably inside -->
  <circle cx="615" cy="120" r="5" fill="#a5b4fc"/>
  <circle cx="652" cy="115" r="5" fill="#a5b4fc"/>
  <circle cx="688" cy="132" r="6" fill="#a5b4fc"/>
  <circle cx="720" cy="126" r="4" fill="#a5b4fc"/>
  <circle cx="660" cy="158" r="5" fill="#a5b4fc"/>
  <circle cx="700" cy="168" r="6" fill="#a5b4fc"/>
  <circle cx="635" cy="178" r="4" fill="#a5b4fc"/>
  <circle cx="745" cy="148" r="5" fill="#a5b4fc"/>
  <circle cx="778" cy="140" r="4" fill="#a5b4fc"/>
  <circle cx="730" cy="196" r="5" fill="#a5b4fc"/>
  <circle cx="672" cy="202" r="4" fill="#a5b4fc"/>
  <circle cx="802" cy="162" r="5" fill="#a5b4fc"/>
  <!-- Previously-problematic nodes now inside, shown in green -->
  <circle cx="858" cy="218" r="6" fill="#22c55e"/>
  <circle cx="578" cy="103" r="5" fill="#22c55e"/>

  <!-- Green check mark -->
  <text x="870" y="98" font-family="-apple-system, BlinkMacSystemFont, 'Segoe UI', Roboto, sans-serif" font-size="22" fill="#22c55e">✓</text>

  <!-- Success label -->
  <text x="735" y="260" text-anchor="middle" font-family="-apple-system, BlinkMacSystemFont, 'Segoe UI', Roboto, sans-serif" font-size="10" fill="#22c55e">모든 노드 [-1, 1] 범위 내 배치</text>

  <!-- ══════════════ Bottom caption ══════════════ -->
  <text x="480" y="285" text-anchor="middle" font-family="-apple-system, BlinkMacSystemFont, 'Segoe UI', Roboto, sans-serif" font-size="10" fill="#6b7280">pos[node] = (pos[node] - centroid) / max(abs(pos[node]))</text>
</svg>
